<svg width="15" height="15" viewBox="0 0 15 15" fill="none" xmlns="http://www.w3.org/2000/svg">
<path fill-rule="evenodd" clip-rule="evenodd" d="M14.8802 0.488586C14.7922 0.149765 14.4521 -0.0592783 14.1095 0.0149548C5.63928 1.85061 1.68122 8.32733 0.024756 14.1702C-0.0551996 14.4522 0.0630694 14.7528 0.313863 14.9051C0.428881 14.975 0.558811 15.0057 0.686419 14.9991C0.839751 14.258 1.50412 13.6996 2.30177 13.6957L2.4903 13.5188C2.75314 13.2721 2.76601 12.8594 2.51905 12.5969C2.37737 12.4463 2.18094 12.3779 1.98958 12.3935L2.01494 12.3277C2.03605 12.2979 2.05492 12.266 2.07122 12.2319C2.20508 11.9524 2.35486 11.7932 2.5052 11.6923C2.65997 11.5885 2.85607 11.5194 3.12129 11.4818C3.39208 11.4435 3.70672 11.4416 4.08729 11.4546C4.21055 11.4588 4.34456 11.4648 4.48515 11.4712C4.7539 11.4833 5.04675 11.4965 5.33442 11.5001C6.24112 11.5119 7.28959 11.438 8.37931 10.958C9.47458 10.4756 10.5565 9.60773 11.5807 8.12027C11.7394 7.88966 11.7332 7.5836 11.5651 7.35958C11.5453 7.3333 11.5239 7.30878 11.5009 7.28621C12.1837 6.90019 12.7837 6.37787 13.2786 5.79233C13.9409 5.00864 14.4383 4.09022 14.7238 3.17562C15.0071 2.26789 15.0954 1.31777 14.8802 0.488586ZM4.13206 10.1511C3.75012 10.138 3.35425 10.1354 2.976 10.1852C4.97774 6.30078 8.311 2.83654 13.6938 1.45352C13.6969 1.85507 13.6263 2.30864 13.4769 2.78743C13.2434 3.53541 12.8308 4.29988 12.2805 4.95104C11.1767 6.25709 9.61165 7.02176 7.86962 6.49102C7.60873 6.41152 7.32584 6.50237 7.16016 6.71882C6.99455 6.93528 6.9811 7.23169 7.1264 7.46223C7.54663 8.12881 8.39446 8.58546 9.4717 8.63346C8.91623 9.18304 8.3718 9.53573 7.85225 9.76458C7.00807 10.1364 6.17394 10.2066 5.35128 10.1959C5.08116 10.1925 4.83118 10.1811 4.57837 10.1696C4.43203 10.163 4.28474 10.1563 4.13206 10.1511Z" fill="#414141"/>
</svg>
